# xmcd
#
# Track frame offsets: 
#        150
#        16485
#        32625
#        47712
#        62262
#        77143
#        96166
#        112968
#        126970
#        145279
#        159786
#        175101
#
# Disc length: 2532 seconds
#
# Revision: 1
# Processed by: cddbd v1.5.2PL0 Copyright (c) Steve Scherf et al.
# Submitted via: ExactAudioCopyFreeDBPlugin 1.0
#
DISCID=9009e20c
DTITLE=Revolver - Let go
DYEAR=2012
DGENRE=pop
TTITLE0=Let's get together
TTITLE1=The letter
TTITLE2=When you're away
TTITLE3=Losing you
TTITLE4=Wind song
TTITLE5=Still
TTITLE6=Cassavetes
TTITLE7=49 states
TTITLE8=Parallel lives
TTITLE9=Brothers
TTITLE10=My lady I
TTITLE11=Let go
EXTD=
EXTT0=
EXTT1=
EXTT2=
EXTT3=
EXTT4=
EXTT5=
EXTT6=
EXTT7=
EXTT8=
EXTT9=
EXTT10=
EXTT11=
PLAYORDER=
